<?xml version="1.0" encoding="utf-8"?>
<!-- Generator: Adobe Illustrator 18.0.0, SVG Export Plug-In . SVG Version: 6.00 Build 0)  -->
<!DOCTYPE svg PUBLIC "-//W3C//DTD SVG 1.1//EN" "http://www.w3.org/Graphics/SVG/1.1/DTD/svg11.dtd">
<svg version="1.1" id="图层_1" xmlns="http://www.w3.org/2000/svg" xmlns:xlink="http://www.w3.org/1999/xlink" x="0px" y="0px"
	 viewBox="0 0 16 16" enable-background="new 0 0 16 16" xml:space="preserve">
<g>
	<path fill="#989898" d="M8,14.6c-0.1,0-0.3-0.1-0.4-0.1c-0.1-0.1-0.1-0.2-0.1-0.3c0-0.1,0-0.1,0-0.2c0-0.1,0.1-0.1,0.1-0.2
		c0.2-0.2,0.5-0.2,0.7,0c0,0,0.1,0.1,0.1,0.2c0,0.1,0,0.1,0,0.2C8.5,14.4,8.3,14.6,8,14.6 M12,12.2c-0.2,0-0.3-0.1-0.4-0.2
		c-0.1-0.1-0.1-0.3,0-0.5c0.1-0.1,0.3-0.2,0.4-0.2c1.7,0,3-1.3,3-2.8c0-1.6-1.3-2.8-3-2.8h-0.4l-0.1-0.4C11.3,3.6,9.8,2.4,8,2.4
		c-1.8,0-3.2,1.2-3.5,2.9L4.5,5.7L4,5.7h0c-1.7,0-3,1.3-3,2.8c0,1.6,1.3,2.8,3,2.8c0.3,0,0.5,0.2,0.5,0.5c0,0.3-0.2,0.5-0.5,0.5
		c-2.1,0-3.9-1.6-4-3.6c-0.1-2,1.5-3.7,3.6-3.9C4.1,2.8,5.9,1.4,8,1.4c2.1,0,3.9,1.4,4.4,3.3c1.1,0.1,2,0.6,2.7,1.3
		c0.7,0.8,1,1.8,0.9,2.7C15.8,10.8,14.1,12.2,12,12.2"/>
	<path fill="#989898" d="M8,12.8c-0.1,0-0.2,0-0.3-0.1c-0.1-0.1-0.1-0.2-0.1-0.3v-5c0-0.2,0.1-0.3,0.2-0.4c0.1-0.1,0.3-0.1,0.5,0
		c0.1,0.1,0.2,0.2,0.2,0.4v5C8.5,12.6,8.3,12.8,8,12.8"/>
	<path fill="#989898" d="M9.9,9.4c-0.1,0-0.2,0-0.3-0.1L8,7.7L6.4,9.3C6.3,9.5,6,9.4,5.8,9.3c-0.2-0.2-0.2-0.5,0-0.6L7.4,7
		c0.3-0.3,0.8-0.3,1.1,0l1.6,1.6c0.1,0.1,0.2,0.3,0.1,0.5C10.2,9.3,10.1,9.4,9.9,9.4"/>
</g>
</svg>
