<?xml version="1.0" encoding="utf-8"?>
<!-- Generator: Adobe Illustrator 18.0.0, SVG Export Plug-In . SVG Version: 6.00 Build 0)  -->
<!DOCTYPE svg PUBLIC "-//W3C//DTD SVG 1.1//EN" "http://www.w3.org/Graphics/SVG/1.1/DTD/svg11.dtd">
<svg version="1.1" id="图层_1" xmlns="http://www.w3.org/2000/svg" xmlns:xlink="http://www.w3.org/1999/xlink" x="0px" y="0px"
	 viewBox="0 0 16 16" enable-background="new 0 0 16 16" xml:space="preserve">
<path fill="#989898" d="M8,13.4C8,13.8,8.2,14,8.6,14h6.8c0.4,0,0.6-0.3,0.6-0.6s-0.3-0.6-0.6-0.6H8.6C8.2,12.7,8,13,8,13.4z M8,2.6
	C8,3,8.2,3.3,8.6,3.3h6.8C15.7,3.3,16,3,16,2.6S15.7,2,15.4,2H8.6C8.2,2,8,2.2,8,2.6z M8,8c0-0.4-0.3-0.6-0.6-0.6H0.6
	C0.3,7.4,0,7.6,0,8s0.3,0.6,0.6,0.6h6.8C7.8,8.6,8,8.4,8,8z M7.2,13.4C7.2,12,6.1,11,4.8,11c-1.1,0-2,0.7-2.3,1.8H0.6
	C0.3,12.7,0,13,0,13.4S0.3,14,0.6,14h1.8c0.3,1.1,1.2,1.8,2.3,1.8C6.1,15.8,7.2,14.7,7.2,13.4z M4.8,14.5c-0.6,0-1.2-0.5-1.2-1.2
	c0-0.6,0.5-1.2,1.2-1.2s1.2,0.5,1.2,1.2C5.9,14,5.4,14.5,4.8,14.5z M7.2,2.6c0-1.3-1.1-2.4-2.4-2.4c-1.1,0-2,0.7-2.3,1.8H0.6
	C0.3,2,0,2.2,0,2.6s0.3,0.6,0.6,0.6h1.8C2.7,4.3,3.7,5,4.8,5C6.1,5,7.2,4,7.2,2.6z M4.8,3.8c-0.6,0-1.2-0.5-1.2-1.2
	c0-0.6,0.5-1.2,1.2-1.2S5.9,2,5.9,2.6S5.4,3.8,4.8,3.8z M13.6,8.6h1.8C15.7,8.6,16,8.4,16,8s-0.3-0.6-0.6-0.6h-1.8
	c-0.3-1.1-1.2-1.8-2.3-1.8C9.9,5.6,8.8,6.7,8.8,8s1.1,2.4,2.4,2.4C12.3,10.4,13.3,9.7,13.6,8.6z M11.2,9.2c-0.6,0-1.2-0.5-1.2-1.2
	s0.5-1.2,1.2-1.2s1.2,0.5,1.2,1.2S11.9,9.2,11.2,9.2z"/>
</svg>
