<?xml version="1.0" encoding="utf-8"?>
<!-- Generator: Adobe Illustrator 18.0.0, SVG Export Plug-In . SVG Version: 6.00 Build 0)  -->
<!DOCTYPE svg PUBLIC "-//W3C//DTD SVG 1.1//EN" "http://www.w3.org/Graphics/SVG/1.1/DTD/svg11.dtd">
<svg version="1.1" id="图层_1" xmlns="http://www.w3.org/2000/svg" xmlns:xlink="http://www.w3.org/1999/xlink" x="0px" y="0px"
	 viewBox="0 0 16 16" enable-background="new 0 0 16 16" xml:space="preserve">
<path fill="#989898" d="M14.6,16H1.4c-0.3,0-0.6-0.3-0.6-0.6c0-0.3,0.3-0.6,0.6-0.6h13.1c0.3,0,0.6,0.3,0.6,0.6
	C15.2,15.7,14.9,16,14.6,16L14.6,16z M14.6,13.6H1.5c-0.3,0-0.6-0.3-0.6-0.6v-2.2c0-1.1,0.9-1.9,1.9-1.9h2.5c0-0.6-0.3-1.7-0.5-1.9
	C4.2,6.1,3.8,5.1,3.8,4c0-1.1,0.5-2.2,1.3-3C5.8,0.3,6.9-0.1,8,0c1.1-0.1,2.2,0.3,3,1.1c0.8,0.7,1.3,1.8,1.3,2.9
	c0,1.1-0.4,2.1-1,2.9c-0.2,0.3-0.4,1.3-0.5,1.9h2.5c1.1,0,1.9,0.9,1.9,1.9v2.2C15.2,13.3,14.9,13.6,14.6,13.6L14.6,13.6z M2.1,12.3
	H14v-1.6c0-0.4-0.3-0.7-0.7-0.7h-2.9c-0.2,0-0.4-0.1-0.5-0.3C9.7,9.5,9.6,9.2,9.5,8.9c0,0,0-0.1,0-0.1c0-0.4,0.2-2.1,0.8-2.8
	C10.7,5.5,11,4.7,11,4c0-0.7-0.3-1.5-0.9-2C9.6,1.4,8.8,1.2,8.1,1.2c0,0-0.1,0-0.1,0C7.2,1.2,6.4,1.4,5.9,2C5.3,2.5,5,3.2,5,4
	c0,0.8,0.3,1.5,0.8,2.1c0.6,0.6,0.7,2.4,0.7,2.8c0,0,0,0,0,0.1c0,0.3-0.1,0.6-0.3,0.8C6.1,9.9,5.9,10,5.7,10H2.8
	c-0.4,0-0.7,0.3-0.7,0.7L2.1,12.3L2.1,12.3z M2.1,12.3"/>
</svg>
