<?xml version="1.0" encoding="utf-8"?>
<!-- Generator: Adobe Illustrator 18.0.0, SVG Export Plug-In . SVG Version: 6.00 Build 0)  -->
<!DOCTYPE svg PUBLIC "-//W3C//DTD SVG 1.1//EN" "http://www.w3.org/Graphics/SVG/1.1/DTD/svg11.dtd">
<svg version="1.1" id="图层_1" xmlns="http://www.w3.org/2000/svg" xmlns:xlink="http://www.w3.org/1999/xlink" x="0px" y="0px"
	 viewBox="0 0 16 16" enable-background="new 0 0 16 16" xml:space="preserve">
<g>
	<g>
		<defs>
			<rect id="SVGID_1_" x="0.1" y="0.1" width="15.7" height="15.8"/>
		</defs>
		<clipPath id="SVGID_2_">
			<use xlink:href="#SVGID_1_"  overflow="visible"/>
		</clipPath>
		<path clip-path="url(#SVGID_2_)" fill="#0DA4E2" d="M14.1,0.1H1.9c-1,0-1.7,0.8-1.7,1.7v12.2c0,1,0.8,1.7,1.7,1.7h12.2
			c1,0,1.7-0.8,1.7-1.7V1.9C15.9,0.9,15.1,0.1,14.1,0.1L14.1,0.1z M13.8,5.2L7,12.1c-0.2,0.2-0.4,0.3-0.7,0.3
			c-0.2,0-0.5-0.1-0.7-0.2L2.1,8.5c-0.3-0.3-0.3-0.9,0-1.2C2.4,7,3,7,3.3,7.3l2.8,2.8l6.3-6.3c0.4-0.4,1-0.4,1.4,0
			C14.2,4.2,14.2,4.9,13.8,5.2L13.8,5.2z M13.8,5.2"/>
	</g>
</g>
</svg>
