<?xml version="1.0" encoding="utf-8"?>
<!-- Generator: Adobe Illustrator 18.0.0, SVG Export Plug-In . SVG Version: 6.00 Build 0)  -->
<!DOCTYPE svg PUBLIC "-//W3C//DTD SVG 1.1//EN" "http://www.w3.org/Graphics/SVG/1.1/DTD/svg11.dtd">
<svg version="1.1" id="图层_1" xmlns="http://www.w3.org/2000/svg" xmlns:xlink="http://www.w3.org/1999/xlink" x="0px" y="0px"
	 viewBox="0 0 16 16" enable-background="new 0 0 16 16" xml:space="preserve">
<g>
	<circle fill="#00B7EE" cx="8" cy="8.1" r="7.5"/>
	<path fill="#FFFFFF" d="M12.4,5.5L7.1,11C7,11,6.9,11.1,6.7,11.1c-0.1,0-0.2,0-0.3-0.1L3.6,8c-0.2-0.2-0.2-0.5,0-0.6
		c0.1-0.1,0.2-0.1,0.3-0.1s0.2,0,0.3,0.1L6.7,10l5.1-5.2c0.1-0.1,0.2-0.1,0.3-0.1c0.1,0,0.2,0,0.3,0.1C12.6,5,12.6,5.3,12.4,5.5
		L12.4,5.5z"/>
</g>
</svg>
