<?xml version="1.0" encoding="utf-8"?>
<!-- Generator: Adobe Illustrator 18.0.0, SVG Export Plug-In . SVG Version: 6.00 Build 0)  -->
<!DOCTYPE svg PUBLIC "-//W3C//DTD SVG 1.1//EN" "http://www.w3.org/Graphics/SVG/1.1/DTD/svg11.dtd">
<svg version="1.1" id="图层_1" xmlns="http://www.w3.org/2000/svg" xmlns:xlink="http://www.w3.org/1999/xlink" x="0px" y="0px"
	 viewBox="0 0 16 16" enable-background="new 0 0 16 16" xml:space="preserve">
<g>
	<path fill="#989898" d="M14.6,16h-4.3c-0.5,0-0.8-0.4-0.8-0.8v-2.5c0-0.4,0.4-0.8,0.8-0.8v-0.6c0-1.2,1-2.1,2.2-2.1
		c0.6,0,1.1,0.2,1.5,0.6c0.4,0.4,0.6,0.9,0.6,1.5v0.6c0.4,0,0.8,0.4,0.8,0.8v2.5C15.5,15.6,15.1,16,14.6,16z M13.7,11.4
		c0-0.3-0.1-0.6-0.4-0.8c-0.2-0.2-0.5-0.4-0.9-0.3c-0.7,0-1.2,0.5-1.2,1.2v0.6h2.5V11.4z M14.5,12.8h-4v2.2h4L14.5,12.8L14.5,12.8z
		 M7.9,9.7L7.9,9.7c-1.7,0-3.3,0.7-4.5,1.8c-1.2,1.2-1.9,2.8-1.9,4.4h-1c0-1,0.2-1.9,0.6-2.8c0.4-0.9,0.9-1.6,1.6-2.3
		C3.4,10.2,4.2,9.7,5,9.4c0.2-0.1,0.4-0.1,0.5-0.2C5.1,8.9,4.7,8.6,4.4,8.3c-1.9-1.8-2-4.8-0.1-6.7c0,0,0.1-0.1,0.1-0.1
		c2-1.9,5.1-1.9,7.1,0c1.9,1.8,2,4.8,0.1,6.7c0,0-0.1,0.1-0.1,0.1C10.5,9.2,9.2,9.7,7.9,9.7L7.9,9.7z M7.9,0.9C5.7,1,4,2.8,4.1,5
		c0.1,2.2,1.9,3.9,4,3.8c2.1-0.1,3.8-1.8,3.8-3.9C11.9,2.7,10.1,0.9,7.9,0.9L7.9,0.9z"/>
</g>
</svg>
