<?xml version="1.0" encoding="utf-8"?>
<!-- Generator: Adobe Illustrator 18.0.0, SVG Export Plug-In . SVG Version: 6.00 Build 0)  -->
<!DOCTYPE svg PUBLIC "-//W3C//DTD SVG 1.1//EN" "http://www.w3.org/Graphics/SVG/1.1/DTD/svg11.dtd">
<svg version="1.1" id="图层_1" xmlns="http://www.w3.org/2000/svg" xmlns:xlink="http://www.w3.org/1999/xlink" x="0px" y="0px"
	 viewBox="0 0 16 16" enable-background="new 0 0 16 16" xml:space="preserve">
<path fill="#989898" d="M14.6,8c0-0.8,0.4-1.5,0.9-2c0.3-0.2,0.3-0.6,0.2-0.9l-1.3-2.1c-0.2-0.3-0.5-0.4-0.9-0.3
	c-0.3,0.1-0.6,0.1-0.9,0.1c-1.3,0-2.5-0.9-2.7-2.1C9.9,0.2,9.6,0,9.2,0H6.8C6.4,0,6.1,0.2,6,0.6C5.8,1.8,4.6,2.7,3.3,2.7
	c-0.3,0-0.6,0-0.9-0.1c-0.3-0.1-0.7,0-0.9,0.3L0.3,5.1C0.2,5.4,0.2,5.8,0.5,6c0.6,0.5,0.9,1.2,0.9,2c0,0.8-0.4,1.5-0.9,2
	c-0.3,0.2-0.3,0.6-0.2,0.9l1.3,2.1c0.2,0.3,0.5,0.4,0.9,0.3c0.3-0.1,0.6-0.1,0.9-0.1c1.3,0,2.5,0.9,2.7,2.1C6.1,15.8,6.4,16,6.8,16
	h2.5c0.3,0,0.6-0.2,0.7-0.6c0.3-1.2,1.4-2.1,2.7-2.1c0.3,0,0.6,0,0.9,0.1c0.3,0.1,0.7,0,0.9-0.3l1.3-2.1c0.2-0.3,0.1-0.7-0.2-0.9
	C14.9,9.5,14.6,8.8,14.6,8z M13.6,12.2c-0.8-0.2-1.6-0.1-2.4,0.2c-0.9,0.4-1.7,1.1-2.1,2.1C9,14.6,9,14.7,8.9,14.9H7.1
	c-0.2-0.6-0.5-1.2-1-1.6c-1-0.9-2.3-1.3-3.7-1l-0.9-1.6c1.4-1.5,1.4-3.8,0-5.3l0.9-1.6c0.8,0.2,1.6,0.1,2.4-0.2
	c0.9-0.4,1.7-1.1,2.1-2.1C7,1.4,7,1.3,7.1,1.1h1.9c0.2,0.6,0.5,1.2,1,1.6c1,0.9,2.3,1.3,3.7,1l0.9,1.6c-1.4,1.5-1.4,3.8,0,5.3
	L13.6,12.2L13.6,12.2z M8,4.6C6.1,4.6,4.6,6.1,4.6,8s1.5,3.4,3.4,3.4s3.4-1.5,3.4-3.4S9.9,4.6,8,4.6z M9.6,9.6
	c-0.4,0.4-1,0.7-1.6,0.7c-0.6,0-1.2-0.2-1.6-0.7C6,9.2,5.7,8.6,5.7,8c0-0.6,0.2-1.2,0.7-1.6s1-0.7,1.6-0.7c0.6,0,1.2,0.2,1.6,0.7
	c0.4,0.4,0.7,1,0.7,1.6S10,9.2,9.6,9.6z"/>
</svg>
