<?xml version="1.0" encoding="utf-8"?>
<!-- Generator: Adobe Illustrator 18.0.0, SVG Export Plug-In . SVG Version: 6.00 Build 0)  -->
<!DOCTYPE svg PUBLIC "-//W3C//DTD SVG 1.1//EN" "http://www.w3.org/Graphics/SVG/1.1/DTD/svg11.dtd">
<svg version="1.1" id="图层_1" xmlns="http://www.w3.org/2000/svg" xmlns:xlink="http://www.w3.org/1999/xlink" x="0px" y="0px"
	 viewBox="0 0 16 16" enable-background="new 0 0 16 16" xml:space="preserve">
<g>
	<path fill="#BBBBBB" d="M13.4,2.4l-0.6-0.6c-0.3-0.3-0.6-0.4-1-0.4c-0.4,0-0.8,0.1-1,0.4c-0.2,0.2-0.4,0.4-0.6,0.6
		C10,2.5,9.9,2.6,9.9,2.6c0,0-0.1,0.1-0.1,0.1l-1,1c0,0-0.1,0-0.1,0.1c0,0,0,0.1-0.1,0.1l-6.5,6.5c-0.1,0.1-0.1,0.1-0.1,0.2
		l-1.5,3.6c-0.1,0.1,0,0.3,0.1,0.4c0.1,0.1,0.2,0.1,0.3,0.1c0.1,0,0.1,0,0.1,0l3.7-1.5c0.1,0,0.1,0,0.2-0.1c0,0,0,0,0,0l7.6-7.6
		c0,0,0,0,0,0c0,0,0,0,0,0c0,0,0.4-0.4,0.8-0.8c0.3-0.3,0.4-0.6,0.4-1C13.8,3.1,13.7,2.7,13.4,2.4L13.4,2.4z M1.7,13.5l1-2.2L4,12.5
		L1.7,13.5z M4.7,12.1L3,10.6l6-6l1.6,1.6L4.7,12.1z M11.2,5.6L9.6,4l0.6-0.6c0.1,0.1,0.3,0.3,0.6,0.5l0.5,0.5
		c0.2,0.2,0.4,0.4,0.6,0.5L11.2,5.6z M12.9,3.9c-0.2,0.2-0.4,0.4-0.6,0.6l-1.6-1.6c0.1-0.1,0.3-0.3,0.5-0.5c0.1-0.1,0.3-0.2,0.5-0.2
		c0.2,0,0.4,0.1,0.5,0.2L12.9,3c0.1,0.1,0.2,0.3,0.2,0.5C13.1,3.6,13,3.8,12.9,3.9L12.9,3.9z M12.9,3.9"/>
	<path fill="#BBBBBB" d="M15.1,13.8H6.7c-0.2,0-0.4,0.2-0.4,0.4c0,0.2,0.2,0.4,0.4,0.4h8.3c0.2,0,0.4-0.2,0.4-0.4
		C15.5,14,15.3,13.8,15.1,13.8L15.1,13.8z M15.1,13.8"/>
</g>
</svg>
