<?xml version="1.0" encoding="UTF-8"?>
<svg width="64px" height="64px" viewBox="0 0 64 64" version="1.1" xmlns="http://www.w3.org/2000/svg" xmlns:xlink="http://www.w3.org/1999/xlink">
    <title>icon/Convenient</title>
    <defs>
        <rect id="path-1" x="340" y="987" width="400" height="352" rx="2"></rect>
        <filter x="-3.2%" y="-3.1%" width="106.5%" height="107.4%" filterUnits="objectBoundingBox" id="filter-3">
            <feOffset dx="0" dy="2" in="SourceAlpha" result="shadowOffsetOuter1"></feOffset>
            <feGaussianBlur stdDeviation="4" in="shadowOffsetOuter1" result="shadowBlurOuter1"></feGaussianBlur>
            <feColorMatrix values="0 0 0 0 0   0 0 0 0 0   0 0 0 0 0  0 0 0 0.09 0" type="matrix" in="shadowBlurOuter1"></feColorMatrix>
        </filter>
    </defs>
    <g id="页面-1" stroke="none" stroke-width="1" fill="none" fill-rule="evenodd">
        <g id="1首页" transform="translate(-508.000000, -1037.000000)">
            <rect id="矩形备份-2" fill="#FFFFFF" x="0" y="768" width="1920" height="651"></rect>
            <mask id="mask-2" fill="white">
                <use xlink:href="#path-1"></use>
            </mask>
            <g id="Mask">
                <use fill="black" fill-opacity="1" filter="url(#filter-3)" xlink:href="#path-1"></use>
                <use fill="#FFFFFF" fill-rule="evenodd" xlink:href="#path-1"></use>
            </g>
            <g id="icon/Convenient" mask="url(#mask-2)">
                <g transform="translate(508.000000, 1037.000000)">
                    <rect id="矩形" fill="#000000" fill-rule="nonzero" opacity="0" x="0" y="0" width="64" height="64"></rect>
                    <g id="编组" stroke-width="1" fill="none" fill-rule="evenodd" transform="translate(5.120000, 5.760000)">
                        <path d="M5.33333337,47.8328889 L11.4293334,47.8328889 L11.4293334,30.5777778 C7.5065756,34.9041286 5.33363894,40.5351334 5.33333337,46.3751111 L5.33333337,47.8328889 L5.33333337,47.8328889 Z M11.4293334,53.1662223 L-3.63797881e-14,53.1662223 L-3.63797881e-14,46.3751111 C-3.63797881e-14,39.2106667 2.66666669,32.3022223 7.47733337,26.9955556 L11.4488889,22.6133333 C12.9102222,5.76533331 26.6666667,1.8189894e-14 26.6666667,1.8189894e-14 C26.6666667,1.8189894e-14 40.4231111,5.76533331 41.8844444,22.6151111 L45.856,26.9955556 C50.6675184,32.3026462 53.3333334,39.2098202 53.3333334,46.3733333 L53.3333334,53.1644444 L41.904,53.1644444 L41.904,53.3333333 L11.4311111,53.3333333 L11.4311111,53.1662223 L11.4293334,53.1662223 Z M48,47.8328889 L48,46.3751111 C47.9996944,40.5351334 45.8267578,34.9041286 41.904,30.5777778 L41.904,47.8328889 L48,47.8328889 Z M16.7626667,48 L36.5688889,48 L36.5688889,23.0773333 C36.0711112,17.3333333 33.8755556,12.8284444 30.4888889,9.29777775 C29.336771,8.09492973 28.0548693,7.0234984 26.6666667,6.10311113 C25.2784641,7.0234984 23.9965624,8.09492973 22.8444444,9.29777775 C19.456,12.8284444 17.2586667,17.3333333 16.7626667,23.0773333 L16.7626667,48 Z" id="形状" fill="#368C7C" fill-rule="nonzero"></path>
                        <path d="M26.6666667,26.6666667 C24.048,26.6666667 21.9253334,24.496 21.9253334,21.8186667 C21.9253334,19.1395556 24.0480001,16.9688889 26.6666667,16.9688889 C29.2853334,16.9688889 31.408,19.1395556 31.408,21.8186667 C31.408,24.496 29.2853334,26.6666667 26.6666667,26.6666667 Z" id="路径" fill="#368C7C" fill-rule="nonzero"></path>
                    </g>
                </g>
            </g>
        </g>
    </g>
</svg>