<?xml version="1.0" encoding="UTF-8"?>
<svg width="64px" height="64px" viewBox="0 0 64 64" version="1.1" xmlns="http://www.w3.org/2000/svg" xmlns:xlink="http://www.w3.org/1999/xlink">
    <title>icon/Easy use</title>
    <defs>
        <rect id="path-1" x="760" y="987" width="400" height="352" rx="2"></rect>
    </defs>
    <g id="页面-1" stroke="none" stroke-width="1" fill="none" fill-rule="evenodd">
        <g id="1首页" transform="translate(-928.000000, -1037.000000)">
            <rect id="矩形备份-2" fill="#FFFFFF" x="0" y="768" width="1920" height="651"></rect>
            <mask id="mask-2" fill="white">
                <use xlink:href="#path-1"></use>
            </mask>
            <use id="Mask备份" fill="#FFFFFF" xlink:href="#path-1"></use>
            <g id="icon/Easy-use" mask="url(#mask-2)" fill-rule="nonzero">
                <g transform="translate(928.000000, 1037.000000)">
                    <rect id="矩形" fill="#000000" opacity="0" x="0" y="0" width="64" height="64"></rect>
                    <path d="M57.8,28.7333333 L47.8266667,11.4 C46.5916195,9.28828308 44.3263529,7.99311943 41.88,7.99997272 L22.12,7.99997272 C19.6736471,7.99311943 17.4083805,9.28828308 16.1733333,11.4 L6.2,28.7333333 C5.04112075,30.7569401 5.04112075,33.2430599 6.2,35.2666667 L16.1733333,52.6 C17.4083805,54.7117169 19.6736471,56.0068806 22.12,56.0000273 L41.88,56.0000273 C44.3263529,56.0068806 46.5916195,54.7117169 47.8266667,52.6 L57.8,35.2666667 C58.9588793,33.2430599 58.9588793,30.7569401 57.8,28.7333333 Z M53.04,32.6533333 L43.0666667,49.9866667 C42.8263448,50.4143954 42.3705374,50.6755884 41.88,50.6668882 L22.12,50.6668882 C21.6294626,50.6755884 21.1736552,50.4143954 20.9333333,49.9866667 L10.96,32.6533333 C10.7218229,32.2407985 10.7218229,31.7325348 10.96,31.32 L20.9333333,13.9866667 C21.1736552,13.558938 21.6294626,13.297745 22.12,13.3064452 L41.88,13.3064452 C42.3705374,13.297745 42.8263448,13.558938 43.0666667,13.9866667 L53.04,31.32 C53.2781771,31.7325348 53.2781771,32.2407985 53.04,32.6533333 Z" id="形状" fill="#368C7C"></path>
                    <path d="M32,21.3333333 C26.1089627,21.3333333 21.3333333,26.1089627 21.3333333,32 C21.3333333,37.8910373 26.1089627,42.6666667 32,42.6666667 C37.8910373,42.6666667 42.6666667,37.8910373 42.6666667,32 C42.6666667,26.1089627 37.8910373,21.3333333 32,21.3333333 L32,21.3333333 Z M32,37.3333333 C29.0544813,37.3333333 26.6666667,34.9455187 26.6666667,32 C26.6666667,29.0544813 29.0544813,26.6666667 32,26.6666667 C34.9455187,26.6666667 37.3333333,29.0544813 37.3333333,32 C37.3333333,34.9455187 34.9455187,37.3333333 32,37.3333333 L32,37.3333333 Z" id="形状" fill="#368C7C"></path>
                </g>
            </g>
        </g>
    </g>
</svg>