<?xml version="1.0" encoding="UTF-8"?>
<svg width="64px" height="64px" viewBox="0 0 64 64" version="1.1" xmlns="http://www.w3.org/2000/svg" xmlns:xlink="http://www.w3.org/1999/xlink">
    <title>icon/Lightweight</title>
    <defs>
        <rect id="path-1" x="1180" y="987" width="400" height="352" rx="2"></rect>
    </defs>
    <g id="页面-1" stroke="none" stroke-width="1" fill="none" fill-rule="evenodd">
        <g id="1首页" transform="translate(-1348.000000, -1037.000000)">
            <rect id="矩形备份-2" fill="#FFFFFF" x="0" y="768" width="1920" height="651"></rect>
            <mask id="mask-2" fill="white">
                <use xlink:href="#path-1"></use>
            </mask>
            <use id="Mask备份-2" fill="#FFFFFF" xlink:href="#path-1"></use>
            <g id="icon/Lightweight" mask="url(#mask-2)" fill-rule="nonzero">
                <g transform="translate(1348.000000, 1037.000000)">
                    <rect id="矩形" fill="#000000" opacity="0" x="0" y="0" width="64" height="64"></rect>
                    <path d="M26.8288,50.944 C24.5167107,50.8522596 22.2461113,50.3004927 20.14976,49.32096 C17.07776,47.84384 15.09632,45.48096 14.26176,42.33216 L14.72768,42.33216 C15.1944474,42.3333547 15.6266311,42.0862294 15.8623468,41.6833507 C16.0980625,41.2804719 16.1017393,40.7826364 15.872,40.37632 L12.47232,34.56 C12.2368453,34.1544658 11.8033417,33.9048967 11.3344,33.9048967 C10.8654583,33.9048967 10.4319547,34.1544658 10.19648,34.56 L6.78144,40.38144 C6.54801473,40.7878486 6.54935037,41.2879659 6.78494305,41.6931219 C7.02053573,42.0982779 7.45452967,42.3468104 7.9232,42.34496 L8.87808,42.34496 C10.09664,49.01632 14.4256,52.3776 17.85088,54.016 C20.66621,55.3353438 23.7211935,56.0662053 26.8288,56.1638516 C28.2745926,56.1680929 29.4508667,55.0009816 29.4579457,53.5552 C29.461016,52.8608596 29.1841641,52.1945694 28.68992,51.70688 C28.1955064,51.2154715 27.5258782,50.9409884 26.8288,50.944 L26.8288,50.944 Z M57.2288,24.32 C56.996133,23.905276 56.5574509,23.6487253 56.08192,23.64928 L55.12704,23.64928 C53.90848,16.97792 49.57696,13.61664 46.15424,11.97056 C43.3389577,10.6510798 40.2839457,9.92021151 37.17632,9.82272 C36.2253175,9.79291738 35.3335185,10.2832563 34.8492052,11.1022401 C34.364892,11.921224 34.364892,12.938936 34.8492052,13.7579199 C35.3335185,14.5769037 36.2253175,15.0672426 37.17632,15.03744 C39.4883328,15.1355648 41.7585355,15.687024 43.85792,16.66048 C46.92992,18.14016 48.91136,20.50048 49.74592,23.64928 L49.28,23.64928 C48.8055282,23.6409616 48.3636163,23.8897508 48.1246391,24.2997296 C47.8856618,24.7097084 47.8869473,25.216838 48.128,25.6256 L51.52512,31.44192 C51.7605947,31.8474542 52.1940983,32.0970233 52.66304,32.0970233 C53.1319817,32.0970233 53.5654853,31.8474542 53.80096,31.44192 L57.19296,25.63328 C57.4413984,25.2341756 57.4551014,24.7320602 57.2288,24.32 L57.2288,24.32 Z M52.18816,32.9779032 L35.20768,32.9779032 C33.4292121,32.9722466 31.9817114,34.4071504 31.97184,36.1856 L31.97184,52.96128 C31.9817114,54.7397296 33.4292121,56.1746334 35.20768,56.1689768 L52.18816,56.1689768 C53.9666279,56.1746334 55.4141286,54.7397296 55.424,52.96128 L55.424,36.1856 C55.4141286,34.4071504 53.9666279,32.9722466 52.18816,32.9779032 L52.18816,32.9779032 Z M50.176,38.1952 L50.176,50.944 L37.23008,50.944 L37.23008,38.1952 L50.176,38.1952 Z M32,13.02784 C31.9901286,11.2493904 30.5426279,9.81448665 28.76416,9.82014323 L11.776,9.82014323 C9.99853008,9.81590051 8.55258976,11.2503924 8.54272,13.02784 L8.54272,29.80352 C8.54407619,30.6594471 8.88556869,31.4797409 9.49200048,32.083772 C10.0984323,32.687803 10.9200743,33.026039 11.776,33.0240499 L28.75648,33.0240499 C29.6141764,33.0287661 30.4384533,32.6917353 31.0471034,32.0874086 C31.6557536,31.4830819 31.9986518,30.6612285 32,29.80352 L32,13.02784 Z M26.74176,15.03744 L26.74176,27.79648 L13.80096,27.79648 L13.80096,15.03744 L26.74176,15.03744 Z" id="形状" fill="#368C7C"></path>
                </g>
            </g>
        </g>
    </g>
</svg>