<?xml version="1.0" encoding="UTF-8"?>
<svg width="16px" height="16px" viewBox="0 0 16 16" version="1.1" xmlns="http://www.w3.org/2000/svg" xmlns:xlink="http://www.w3.org/1999/xlink">
    <title>icon/share</title>
    <defs>
        <rect id="path-1" x="340" y="188" width="295" height="352" rx="2.08"></rect>
        <filter x="-4.4%" y="-3.1%" width="108.8%" height="107.4%" filterUnits="objectBoundingBox" id="filter-2">
            <feOffset dx="0" dy="2" in="SourceAlpha" result="shadowOffsetOuter1"></feOffset>
            <feGaussianBlur stdDeviation="4" in="shadowOffsetOuter1" result="shadowBlurOuter1"></feGaussianBlur>
            <feComposite in="shadowBlurOuter1" in2="SourceAlpha" operator="out" result="shadowBlurOuter1"></feComposite>
            <feColorMatrix values="0 0 0 0 0   0 0 0 0 0   0 0 0 0 0  0 0 0 0.09 0" type="matrix" in="shadowBlurOuter1"></feColorMatrix>
        </filter>
        <filter id="filter-3">
            <feColorMatrix in="SourceGraphic" type="matrix" values="0 0 0 0 0.000000 0 0 0 0 0.000000 0 0 0 0 0.000000 0 0 0 0.850000 0"></feColorMatrix>
        </filter>
    </defs>
    <g id="页面-1" stroke="none" stroke-width="1" fill="none" fill-rule="evenodd">
        <g id="2工作流" transform="translate(-364.000000, -449.000000)">
            <rect id="矩形备份-4" stroke="#979797" fill="#FFFFFF" x="0.5" y="64.5" width="1919" height="2130"></rect>
            <g id="Rectangle-5-Copy-4">
                <use fill="black" fill-opacity="1" filter="url(#filter-2)" xlink:href="#path-1"></use>
                <rect stroke="#E9E9E9" stroke-width="1.04" stroke-linejoin="square" fill="#FFFFFF" fill-rule="evenodd" x="340.52" y="188.52" width="293.96" height="350.96" rx="2.08"></rect>
            </g>
            <g id="分-享01" transform="translate(364.000000, 449.000000)" filter="url(#filter-3)">
                <g>
                    <rect id="矩形" fill="#000000" fill-rule="nonzero" opacity="0" x="0" y="0" width="16" height="16"></rect>
                    <path d="M12.91375,10.3265625 C11.969125,10.3265625 11.196875,10.8321563 10.8371875,11.617125 L6.27145312,9.67504687 C6.53778125,9.26248437 6.68410938,8.75679687 6.68410938,8.21151563 C6.68410938,7.98559375 6.65745312,7.75928125 6.60410938,7.5463125 L9.51929687,5.2845625 C9.90554687,5.57720313 10.39825,5.75015625 10.9439375,5.75015625 C12.2618594,5.75015625 13.24675,4.76559375 13.24675,3.46215625 C13.24675,2.15825 12.2615313,1.1736875 10.9439375,1.1736875 C9.6259375,1.1736875 8.65432813,2.15823438 8.65432813,3.46215625 C8.65432813,3.7948125 8.72096875,4.10071875 8.82729688,4.36671875 L6.13807812,6.42864062 C5.60576563,5.63040625 4.727125,5.07151562 3.72879688,5.07151562 C2.10079688,5.06745313 0.777765625,6.38384375 0.773705496,8.01182813 C0.773705496,8.0162861 0.773705496,8.02074515 0.773705496,8.02520312 C0.770640625,9.65320313 2.08792188,10.9754375 3.71592187,10.9785625 L3.72889063,10.9785625 C4.34120312,10.9785625 4.9134375,10.8192812 5.3794375,10.5265625 L10.6244844,12.7614375 C10.6912031,13.9985625 11.6495156,14.9164844 12.9136875,14.9164844 C14.232,14.9164844 15.2035937,13.9322344 15.2035937,12.6284063 C15.2035937,11.3245781 14.2183125,10.3266406 12.9140781,10.3266406 L12.9137656,10.3266406 L12.91375,10.3265625 Z" id="路径" fill-opacity="0.5" fill="#000000" fill-rule="nonzero"></path>
                </g>
            </g>
        </g>
    </g>
</svg>