<?xml version="1.0" encoding="UTF-8"?>
<!-- Generator: Adobe Illustrator 19.1.0, SVG Export Plug-In . SVG Version: 6.00 Build 0)  -->
<svg xmlns="http://www.w3.org/2000/svg" xmlns:xlink="http://www.w3.org/1999/xlink" xmlns:dc="http://purl.org/dc/elements/1.1/" xmlns:cc="http://creativecommons.org/ns#" xmlns:rdf="http://www.w3.org/1999/02/22-rdf-syntax-ns#" version="1.1" id="DESIGNS" x="0px" y="0px" width="32px" height="32px" viewBox="0 0 32 32" style="enable-background:new 0 0 32 32;" xml:space="preserve">
<title property="dc:title">to ask</title><desc property="dc:description">An icon for "ask" from the Flat Shadows series on to [icon]. Downloaded from http://www.toicon.com/icons/flat-shadows_ask by 219.134.163.210 on 2021-07-01. Licensed CC-BY, see http://toicon.com/license/ for details.</desc>
<g>
	<path class="flatshadows_twee" d="M16,2C8.268,2,2,8.268,2,16s6.268,14,14,14s14-6.268,14-14S23.732,2,16,2z" style="fill: #E1E5E5;"/>
	<circle class="flatshadows_een" cx="16" cy="16" r="12" style="fill: #FDFFFF;"/>
	<path class="flatshadows_twee" d="M15,25l2.844,2.844c5.287-0.818,9.432-5.075,10.064-10.421c-3.572-3.572-6.761-6.761-7.666-7.666   c-0.018-0.018-0.038-0.024-0.057-0.042C19.105,8.658,17.632,8,16,8c-3.314,0-6,2.686-6,6l5,4.995V22l1,1h-1V25z" style="fill: #E1E5E5;"/>
	<g>
		<g>
			<rect x="15" y="23" class="flatshadows_vijf" width="2" height="2" style="fill: #8D9999;"/>
			<path class="flatshadows_vijf" d="M22,14c0-3.314-2.686-6-6-6s-6,2.686-6,6h2c0-2.209,1.791-4,4-4s4,1.791,4,4     c0,2.209-1.791,4-4,4h-1v4h2v-2.09C19.837,19.433,22,16.972,22,14z" style="fill: #8D9999;"/>
		</g>
		<g>
			<rect x="15" y="23" class="flatshadows_vijf" width="2" height="2" style="fill: #8D9999;"/>
			<path class="flatshadows_vijf" d="M22,14c0-3.314-2.686-6-6-6s-6,2.686-6,6h2c0-2.209,1.791-4,4-4s4,1.791,4,4     c0,2.209-1.791,4-4,4h-1v4h2v-2.09C19.837,19.433,22,16.972,22,14z" style="fill: #8D9999;"/>
		</g>
	</g>
	<path class="flatshadows_vijf" d="M22,14c0-3.314-2.686-6-6-6s-6,2.686-6,6h2c0-2.209,1.791-4,4-4s4,1.791,4,4c0,2.209-1.791,4-4,4   h-1v4h2v-2.09C19.837,19.433,22,16.972,22,14z" style="fill: #8D9999;"/>
	<path class="flatshadows_drie" d="M27.908,17.423c-0.633,5.346-4.777,9.603-10.064,10.421l1.689,1.689   c5.017-1.307,8.933-5.315,10.099-10.386C29.052,18.567,28.476,17.991,27.908,17.423z" style="fill: #C4CCCC;"/>
</g>
<metadata><work rdf:about=""><format>image/svg+xml</format><type rdf:resource="http://purl.org/dc/dcmitype/StillImage"/><license rdf:resource="http://creativecommons.org/licenses/by/4.0/"/><attributionname>Shannon E Thomas</attributionname><attributionurl>http://www.toicon.com/icons/flat-shadows_ask</attributionurl></work></metadata></svg>
