<?xml version="1.0" encoding="UTF-8"?>
<svg width="16px" height="16px" viewBox="0 0 16 16" version="1.1" xmlns="http://www.w3.org/2000/svg" xmlns:xlink="http://www.w3.org/1999/xlink">
    <title>icon-begin-1-active</title>
    <g id="页面-1" stroke="none" stroke-width="1" fill="none" fill-rule="evenodd">
        <g id="画板" transform="translate(-69.000000, -94.000000)">
            <g id="编组-4备份" transform="translate(69.000000, 94.000000)">
                <rect id="矩形" x="0" y="0" width="16" height="16"></rect>
                <path d="M12,3 C12.2649062,3 12.5154062,3.104625 12.7053906,3.29460937 C12.895375,3.48459375 13,3.73509375 13,4 L13,13 C13,13.2649062 12.895375,13.5154062 12.7053906,13.7053906 C12.5154062,13.895375 12.2649062,14 12,14 L3,14 C2.73509375,14 2.48459375,13.895375 2.29460937,13.7053906 C2.104625,13.5154062 2,13.2649062 2,13 L2,4 C2,3.73509375 2.104625,3.48459375 2.29460937,3.29460937 C2.48459375,3.104625 2.73509375,3 3,3 L12,3 M12,2 L3,2 C1.9,2 1,2.9 1,4 L1,13 C1,14.1 1.9,15 3,15 L12,15 C13.1,15 14,14.1 14,13 L14,4 C14,2.9 13.1,2 12,2 Z M11,5.5 L4,5.5 C3.725,5.5 3.5,5.275 3.5,5 C3.5,4.725 3.725,4.5 4,4.5 L11,4.5 C11.275,4.5 11.5,4.725 11.5,5 C11.5,5.275 11.275,5.5 11,5.5 Z M4,12.5 C3.725,12.5 3.5,12.275 3.5,12 L3.5,7 C3.5,6.725 3.725,6.5 4,6.5 C4.275,6.5 4.5,6.725 4.5,7 L4.5,12 C4.5,12.275 4.275,12.5 4,12.5 Z M6.5,8.5 L11,8.5 C11.275,8.5 11.5,8.275 11.5,8 C11.5,7.725 11.275,7.5 11,7.5 L6.5,7.5 C6.225,7.5 6,7.725 6,8 C6,8.275 6.225,8.5 6.5,8.5 Z M6.5,11.5 L11,11.5 C11.275,11.5 11.5,11.275 11.5,11 C11.5,10.725 11.275,10.5 11,10.5 L6.5,10.5 C6.225,10.5 6,10.725 6,11 C6,11.275 6.225,11.5 6.5,11.5 Z" id="形状" fill="#1890FF" fill-rule="nonzero" opacity="0.85"></path>
            </g>
        </g>
    </g>
</svg>