<?xml version="1.0" encoding="UTF-8"?>
<svg width="32px" height="32px" viewBox="0 0 32 32" version="1.1" xmlns="http://www.w3.org/2000/svg" xmlns:xlink="http://www.w3.org/1999/xlink">
    <title>icon_webo</title>
    <g id="页面-1" stroke="none" stroke-width="1" fill="none" fill-rule="evenodd">
        <g id="--工作流节点设置/模型选择" transform="translate(-1247.000000, -753.000000)" fill="#000000" fill-rule="nonzero">
            <g id="icon-webo" transform="translate(1247.000000, 753.000000)">
                <rect id="矩形" opacity="0" x="0" y="0" width="32" height="32"></rect>
                <path d="M14.6435423,21.2960659 C11.9031747,21.4247674 9.68783514,20.0499373 9.68783514,18.2216317 C9.68783514,16.391003 11.9031747,14.9227829 14.644007,14.7959399 C17.3857685,14.6695614 19.606219,15.7995333 19.606219,17.6269097 C19.606219,19.4556799 17.3857685,21.1720106 14.644007,21.2960659 M20.4792523,15.3548857 C19.8278458,15.2285072 20.1447212,14.8781788 20.1447212,14.8781788 C20.1447212,14.8781788 20.7812596,13.8281227 20.0183427,13.0652058 C19.0728276,12.1196907 16.7752491,13.1860087 16.7752491,13.1860087 C15.8975695,13.4578153 16.1298828,13.0610242 16.2539381,12.3863864 C16.2539381,11.5914103 15.9816669,10.2449224 13.6436659,11.0403631 C11.3089173,11.8395209 9.30358895,14.64029 9.30358895,14.64029 C7.90877992,16.5006548 8.09370131,17.9386741 8.09370131,17.9386741 C8.44170662,21.1139322 11.8153603,21.9855717 14.4391066,22.1918659 C17.1999178,22.4083819 20.9252938,21.2403107 22.0557303,18.8405143 C23.1852376,16.4365364 21.1320527,15.4854457 20.4792523,15.3548857 M15.0268593,18.2416107 C14.8521597,18.3717061 14.6375022,18.3540503 14.5459708,18.1974711 C14.4493284,18.0450736 14.4855693,17.8011447 14.6621274,17.6724431 C14.8660985,17.5205102 15.0784328,17.5641851 15.1704289,17.7165826 C15.262425,17.8726971 15.1969126,18.1068689 15.0268593,18.2416107 M13.4015955,19.6252686 C12.8867892,19.6856701 12.4723423,19.3892383 12.4723423,18.9585295 C12.4723423,18.5301438 12.8407912,18.0808499 13.3560621,18.0274178 C13.9466025,17.971198 14.3317779,18.3117693 14.3317779,18.7424781 C14.3317779,19.1708638 13.9140786,19.5671903 13.4015955,19.6252686 M14.0971415,16.0021105 C11.3409765,16.3245613 11.6592458,18.9060267 11.6592458,18.9060267 C11.6592458,18.9060267 11.6313682,19.7237695 12.398002,20.1405395 C14.0111856,21.0140375 15.6712964,20.4852925 16.5108766,19.4017833 C17.3499922,18.3178094 16.857488,15.6815181 14.0971415,16.0021105 M21.8210939,14.2374587 C22.0605123,14.2374944 22.2578098,14.0496017 22.2694586,13.8104669 C22.6063128,10.7838893 19.7897465,11.3047357 19.7897465,11.3047357 C19.6694886,11.3047305 19.5542161,11.3527871 19.4695745,11.4382141 C19.3849329,11.523641 19.3379429,11.6393524 19.3390392,11.7596051 C19.3390392,12.0077157 19.5393127,12.2102929 19.7897465,12.2102929 C21.8131953,11.7633221 21.3662245,13.7863063 21.3662245,13.7863063 C21.3662245,14.03674 21.5706602,14.2369941 21.8215585,14.2369941 M21.4930675,8.95418975 C20.5192102,8.7260581 19.5174753,8.92305977 19.2363762,8.97649183 C19.2150034,8.97881496 19.1945598,8.9987939 19.1750455,9.00297554 C19.1652883,9.00483405 19.1592482,9.01505583 19.1592482,9.01505583 C18.8823307,9.0931131 18.6806828,9.34958698 18.6806828,9.65159426 C18.6806828,10.0126091 18.9724683,10.3090409 19.3372002,10.3090409 C19.3372002,10.3090409 19.6917102,10.261649 19.9319222,10.1673298 C20.1702756,10.0716167 22.1876843,10.0957773 23.1889546,11.7786548 C23.7358201,13.0061982 23.4296312,13.8281227 23.3915318,13.9605413 C23.3915318,13.9605413 23.2614363,14.2792751 23.2614363,14.5933627 C23.2614363,14.9557714 23.5541511,15.1839031 23.9165598,15.1839031 C24.2185671,15.1839031 24.4731825,15.1420867 24.5475227,14.6305328 L24.5512398,14.6305328 C25.6268503,11.045474 23.2354172,9.36120264 21.4930675,8.95418975 M16.4597677,3 C9.02620687,3 3,9.02620687 3,16.4583738 C3,23.8933285 9.02620687,29.9186061 16.4597677,29.9186061 C23.8933285,29.9186061 29.92,23.8933285 29.92,16.4583738 C29.9195354,9.02620687 23.8928639,3 16.4593031,3 M16.4388595,3.72110047 C23.4519332,3.72110047 29.1570831,9.42532111 29.1570831,16.4379302 C29.1570831,23.4523979 23.4514686,29.1570831 16.4388595,29.1570831 C9.42485649,29.1570831 3.71924196,23.4523979 3.71924196,16.4379302 C3.71924196,9.42532111 9.42485649,3.72110047 16.4388595,3.72110047" id="形状" opacity="0.65"></path>
            </g>
        </g>
    </g>
</svg>