<?xml version="1.0" encoding="UTF-8"?>
<svg width="16px" height="16px" viewBox="0 0 16 16" version="1.1" xmlns="http://www.w3.org/2000/svg" xmlns:xlink="http://www.w3.org/1999/xlink">
    <title>icon-begin-active</title>
    <g id="页面-1" stroke="none" stroke-width="1" fill="none" fill-rule="evenodd" opacity="0.85">
        <g id="画板" transform="translate(-69.000000, -45.000000)" fill-rule="nonzero">
            <g id="outdent" transform="translate(77.000000, 53.000000) scale(-1, -1) translate(-77.000000, -53.000000) translate(69.000000, 45.000000)">
                <rect id="矩形" fill-opacity="0.449999988" fill="#000000" opacity="0" x="0" y="0" width="16" height="16"></rect>
                <path d="M5.9765625,6.90625 L13.0078125,6.90625 C13.0722656,6.90625 13.125,6.85 13.125,6.78125 L13.125,5.90625 C13.125,5.8375 13.0722656,5.78125 13.0078125,5.78125 L5.9765625,5.78125 C5.91210938,5.78125 5.859375,5.8375 5.859375,5.90625 L5.859375,6.78125 C5.859375,6.85 5.91210938,6.90625 5.9765625,6.90625 Z M5.859375,10.09375 C5.859375,10.1625 5.91210938,10.21875 5.9765625,10.21875 L13.0078125,10.21875 C13.0722656,10.21875 13.125,10.1625 13.125,10.09375 L13.125,9.21875 C13.125,9.15 13.0722656,9.09375 13.0078125,9.09375 L5.9765625,9.09375 C5.91210938,9.09375 5.859375,9.15 5.859375,9.21875 L5.859375,10.09375 Z M13.2421875,2.5 L1.7578125,2.5 C1.69335938,2.5 1.640625,2.55625 1.640625,2.625 L1.640625,3.5 C1.640625,3.56875 1.69335938,3.625 1.7578125,3.625 L13.2421875,3.625 C13.3066406,3.625 13.359375,3.56875 13.359375,3.5 L13.359375,2.625 C13.359375,2.55625 13.3066406,2.5 13.2421875,2.5 Z M13.2421875,12.375 L1.7578125,12.375 C1.69335938,12.375 1.640625,12.43125 1.640625,12.5 L1.640625,13.375 C1.640625,13.44375 1.69335938,13.5 1.7578125,13.5 L13.2421875,13.5 C13.3066406,13.5 13.359375,13.44375 13.359375,13.375 L13.359375,12.5 C13.359375,12.43125 13.3066406,12.375 13.2421875,12.375 Z M1.69042969,8.1078125 L3.97998047,10.03125 C4.06494141,10.103125 4.19091797,10.0390625 4.19091797,9.9234375 L4.19091797,6.0765625 C4.19091797,5.9609375 4.06640625,5.896875 3.97998047,5.96875 L1.69042969,7.8921875 C1.62451172,7.946875 1.62451172,8.053125 1.69042969,8.1078125 Z" id="形状" fill="#1890FF"></path>
            </g>
        </g>
    </g>
</svg>