<?xml version="1.0" encoding="UTF-8"?>
<svg width="16px" height="16px" viewBox="0 0 16 16" version="1.1" xmlns="http://www.w3.org/2000/svg" xmlns:xlink="http://www.w3.org/1999/xlink">
    <title>icon-begin-5-active</title>
    <g id="页面-1" stroke="none" stroke-width="1" fill="none" fill-rule="evenodd" opacity="0.85">
        <g id="画板" transform="translate(-61.000000, -559.000000)" fill-rule="nonzero">
            <g id="icon-begin-5备份" transform="translate(61.000000, 559.000000)">
                <rect id="矩形" fill="#000000" opacity="0" x="0" y="0" width="16" height="16"></rect>
                <path d="M13.4349871,10.227066 L13.4349871,7.89923631 L8.39136666,7.89923631 L8.64999131,6.3473445 L11.1071574,6.3473445 L11.1071573,1.69168503 L4.89962206,1.69168503 L4.89962206,6.3473445 L7.35507727,6.3473445 L7.61029623,7.89923631 L2.57179233,7.89923631 L2.57179233,10.2366755 L0.995660937,10.2432151 L0.995660937,14.1390857 L4.89962206,14.1390857 L4.89962206,10.2836197 L4.89962206,10.227066 L3.34773025,10.2335097 L3.34773025,8.67519022 L7.73793769,8.67519022 L7.97970977,10.1453295 L8.0033897,10.227066 L8.26201436,8.67517423 L12.6590332,8.67517423 L12.6590332,10.227066 L11.1071414,10.227066 L11.1071414,14.1067876 L14.9626074,14.1390857 L14.9626074,10.227066 L13.4349871,10.227066 Z M5.67555997,5.57140659 L5.67555997,2.46762295 L10.3312194,2.46762295 L10.3312194,5.57140659 L8.77932763,5.57140659 L7.22743581,5.57140659 L5.67555997,5.57140659 L5.67555997,5.57140659 Z M4.12368414,13.3631318 L1.77159886,13.3631318 L1.77159886,11.0595416 L4.12368414,11.0595416 L4.12368414,13.3631318 L4.12368414,13.3631318 Z M14.1866854,13.3631318 L11.8831112,13.3308337 L11.8831112,11.003004 L12.6590492,11.003004 L13.4349871,11.003004 L14.210925,11.003004 L14.1866854,13.3631318 Z M5.69981553,14.1390697 L10.2665753,14.1390697 L10.3312194,10.22705 L8.0033897,10.22705 L5.67555997,10.22705 L5.69981553,14.1390697 Z M9.55528152,11.003004 L9.55528152,13.3308337 L6.47575344,13.3631318 L6.45149788,11.003004 L9.55528152,11.003004 Z" id="形状" fill="#1890FF"></path>
            </g>
        </g>
    </g>
</svg>