<?xml version="1.0" encoding="UTF-8"?>
<svg width="32px" height="32px" viewBox="0 0 32 32" version="1.1" xmlns="http://www.w3.org/2000/svg" xmlns:xlink="http://www.w3.org/1999/xlink">
    <title>icon_email</title>
    <g id="页面-1" stroke="none" stroke-width="1" fill="none" fill-rule="evenodd" opacity="0.65">
        <g id="--工作流节点设置/模型选择" transform="translate(-1343.000000, -752.000000)" fill-rule="nonzero">
            <g id="icon-email" transform="translate(1343.000000, 752.000000)">
                <rect id="矩形备份" fill="#000000" opacity="0" x="0" y="0" width="32" height="32"></rect>
                <path d="M15.995,2 C8.26594941,2 2,8.26594941 2,15.995 C2,23.7240506 8.26594941,29.99 15.995,29.99 C23.7240506,29.99 29.99,23.7240506 29.99,15.995 C29.99,8.26594941 23.7240506,2 15.995,2 Z" id="路径" stroke="#000000"></path>
                <g id="编组-2" transform="translate(9.000000, 11.000000)" fill="#000000">
                    <path d="M1.3515625,0 L12.1625,0 C12.9,0 13.5046875,0.5890625 13.5140625,1.3109375 L6.759375,5.01875 L0.00625,1.315625 C0.0125,0.590625 0.6125,0 1.3515625,0 Z" id="路径"></path>
                    <path d="M0.00625,2.734375 L-4.61852778e-14,9.290625 C-4.61852778e-14,10.0203125 0.6078125,10.6171875 1.3515625,10.6171875 L12.1625,10.6171875 C12.90625,10.6171875 13.5140625,10.0203125 13.5140625,9.290625 L13.5140625,2.73125 L6.91875,6.265625 C6.8171875,6.3203125 6.6953125,6.3203125 6.5953125,6.265625 L0.00625,2.734375 Z" id="路径"></path>
                </g>
            </g>
        </g>
    </g>
</svg>