<?xml version="1.0" encoding="UTF-8"?>
<svg width="16px" height="16px" viewBox="0 0 16 16" version="1.1" xmlns="http://www.w3.org/2000/svg" xmlns:xlink="http://www.w3.org/1999/xlink">
    <title>icon-begin-4-active</title>
    <g id="页面-1" stroke="none" stroke-width="1" fill="none" fill-rule="evenodd">
        <g id="画板" transform="translate(-53.000000, -414.000000)" fill-rule="nonzero">
            <g id="icon-begin-4备份" transform="translate(53.000000, 414.000000)">
                <rect id="矩形" fill="#000000" opacity="0" x="0" y="0" width="16" height="16"></rect>
                <path d="M3.05609375,1.10578125 C3.1721875,1.0915625 3.289375,1.08875 3.40625,1.08984375 L12.4845312,1.08984375 C12.6621875,1.09046875 12.8410937,1.0840625 13.0173437,1.11203125 C13.5057812,1.18328125 13.9571875,1.466875 14.2367187,1.873125 C14.4339062,2.15671875 14.54875,2.4978125 14.5585937,2.84328125 C14.5587645,4.60390625 14.5582812,6.36453125 14.5587645,8.12515625 C14.5604687,8.3025 14.4095312,8.46265625 14.2334375,8.475625 C14.0885937,8.4925 13.9392187,8.4121875 13.87375,8.28203125 C13.82625,8.19578125 13.8314062,8.094375 13.8320312,7.999375 C13.8321875,6.29125 13.831875,4.58296875 13.8321875,2.8746875 C13.8254687,2.57953125 13.6878125,2.2915625 13.4673437,2.09609375 C13.265,1.9121875 12.9915625,1.81421875 12.7190625,1.8165625 C9.58296875,1.81640625 6.446875,1.81625 3.3109375,1.8165625 C3.0875,1.81609375 2.86234375,1.87828125 2.67796875,2.00609375 C2.381875,2.2025 2.1959375,2.55078125 2.19546875,2.90609375 C2.19515625,6.29703125 2.19546875,9.68796875 2.1953125,13.0789062 C2.1946875,13.3226562 2.275,13.5664062 2.42609375,13.758125 C2.598125,13.9820312 2.8603125,14.1340625 3.14015625,14.1715625 C3.2590625,14.1878125 3.379375,14.1828125 3.4990625,14.1835937 C5.0621875,14.1835937 6.62515625,14.1834375 8.188125,14.1835937 C8.293125,14.1860937 8.39359375,14.2415625 8.4565625,14.3246875 C8.53078125,14.4207812 8.5515625,14.5553125 8.509375,14.669375 C8.468125,14.7890625 8.3584375,14.880625 8.234375,14.9028125 C8.1725,14.913125 8.1096875,14.9098437 8.04734375,14.9101562 L3.56140625,14.9101562 C3.37375,14.909375 3.18453125,14.916875 2.9984375,14.8859375 C2.519375,14.8125 2.078125,14.5340625 1.80046875,14.1375 C1.6103125,13.8692187 1.49625,13.5479687 1.47390625,13.2198437 C1.4659375,13.1204687 1.469375,13.0207812 1.46875,12.92125 L1.46875,3.17203125 C1.47,2.9946875 1.46140625,2.81625 1.48921875,2.64046875 C1.54796875,2.2334375 1.751875,1.85015625 2.055,1.57234375 C2.3290625,1.3175 2.68453125,1.151875 3.05609375,1.10578125 Z M4.3346875,3.88390625 C6.780625,3.88125 9.22671875,3.88359375 11.6726562,3.88265625 C11.8742187,3.884375 12.041875,4.08265625 12.0153125,4.28171875 C12.0067187,4.42390625 11.9015625,4.55234375 11.7665625,4.595 C11.700625,4.61796875 11.6298437,4.61328125 11.56125,4.61328125 C9.165625,4.613125 6.77,4.6134375 4.37453125,4.613125 C4.264375,4.61296875 4.155625,4.56046875 4.08859375,4.4728125 C4.0171875,4.3825 3.99390625,4.2575 4.02546875,4.14703125 C4.0625,4.0078125 4.1903125,3.89640625 4.3346875,3.88390625 L4.3346875,3.88390625 Z M4.4896875,6.61671875 C4.5440625,6.6046875 4.6,6.61015625 4.65515625,6.609375 C7.0565625,6.60921875 9.45796875,6.60953125 11.859375,6.60921875 C12.0075,6.60671875 12.1467187,6.71171875 12.1939062,6.85078125 C12.2346875,6.963125 12.2145312,7.09515625 12.1429687,7.19078125 C12.074375,7.284375 11.960625,7.3415625 11.8445312,7.33984375 C9.416875,7.339375 6.98921875,7.34046875 4.56171875,7.339375 C4.37515625,7.33796875 4.20734375,7.171875 4.21015625,6.98421875 C4.19890625,6.81484375 4.32484375,6.65265625 4.4896875,6.61671875 Z M4.55453125,8.83703125 C6.2446875,8.8340625 7.93515625,8.83703125 9.62546875,8.835625 C9.70265625,8.83390625 9.78265625,8.845 9.84984375,8.8859375 C9.9775,8.95609375 10.0496875,9.10921875 10.0284375,9.25265625 C10.0140625,9.37171875 9.93609375,9.479375 9.82828125,9.5315625 C9.751875,9.5721875 9.66296875,9.57203125 9.57875,9.57046875 C7.916875,9.57015625 6.255,9.5703125 4.593125,9.57046875 C4.48828125,9.573125 4.38171875,9.53421875 4.3096875,9.45671875 C4.19859375,9.3446875 4.1784375,9.158125 4.255625,9.02203125 C4.3153125,8.91484375 4.431875,8.84265625 4.55453125,8.83703125 Z M11.768125,9.00328125 C12.3878125,8.76875 13.0992187,8.79 13.7034375,9.0621875 C14.3429687,9.345 14.8534375,9.904375 15.0742187,10.568125 C15.2796875,11.1689063 15.2484375,11.8470313 14.9876562,12.4260937 C14.76375,12.9303125 14.369375,13.3560937 13.8851562,13.62 C13.3435938,13.9182812 12.6914063,14.0054687 12.0895313,13.8654687 C11.7470313,13.7867188 11.4209375,13.63625 11.1401563,13.4246875 C10.6353125,13.9292187 10.1304688,14.4335938 9.62625,14.9385937 C9.5821875,14.98625 9.52796875,15.0251562 9.465625,15.0448437 C9.32609375,15.0928125 9.15984375,15.0465625 9.068125,14.9303125 C8.97859375,14.8226562 8.961875,14.6625 9.0240625,14.5376562 C9.05671875,14.470625 9.1134375,14.4204687 9.16484375,14.3682812 C9.65140625,13.8821875 10.1373438,13.3954687 10.6240625,12.9095312 C10.3059375,12.4829687 10.1239062,11.955 10.1209375,11.4223437 C10.1084375,10.8460937 10.3035937,10.2685937 10.6604687,9.81625 C10.9464062,9.45109375 11.3334375,9.1653125 11.768125,9.00328125 M12.6298437,9.56828125 C12.0940625,9.575 11.5707812,9.83578125 11.2401562,10.256875 C10.8834375,10.6985937 10.758125,11.313125 10.9092187,11.8598437 C11.0385937,12.350625 11.386875,12.776875 11.8392187,13.0057812 C12.2210937,13.2023437 12.6739062,13.2546875 13.0910937,13.1529687 C13.6020312,13.0328125 14.0503125,12.6764062 14.2853125,12.2073437 C14.4679687,11.853125 14.5239062,11.4373437 14.45,11.0464062 C14.3784375,10.66375 14.17875,10.3070312 13.890625,10.0454687 C13.5525,9.73171875 13.090625,9.55859375 12.6298437,9.56828125 L12.6298437,9.56828125 Z M4.535625,11.1779687 C5.83640625,11.1728125 7.13734375,11.1775 8.43828125,11.175625 C8.58921875,11.1696875 8.73703125,11.2667187 8.79015625,11.4082812 C8.8303125,11.51625 8.81984375,11.6442187 8.75578125,11.7410937 C8.69421875,11.8376562 8.5840625,11.9035937 8.4690625,11.90625 C7.166875,11.9064062 5.86484375,11.9059375 4.5628125,11.9064062 C4.4353125,11.9073437 4.31203125,11.83 4.25296875,11.7176562 C4.20828125,11.6378125 4.199375,11.5409375 4.21953125,11.4523437 C4.2534375,11.3067187 4.38640625,11.1909375 4.535625,11.1779687 Z" id="形状" fill="#1890FF" opacity="0.85"></path>
            </g>
        </g>
    </g>
</svg>