<?xml version="1.0" encoding="UTF-8"?>
<svg width="32px" height="32px" viewBox="0 0 32 32" version="1.1" xmlns="http://www.w3.org/2000/svg" xmlns:xlink="http://www.w3.org/1999/xlink">
    <title>icon_wetach</title>
    <g id="页面-1" stroke="none" stroke-width="1" fill="none" fill-rule="evenodd">
        <g id="--工作流节点设置/模型选择" transform="translate(-1295.000000, -753.000000)" fill="#000000" fill-rule="nonzero">
            <g id="icon-wechat" transform="translate(1295.000000, 753.000000)">
                <rect id="矩形" opacity="0" x="0" y="0" width="32" height="32"></rect>
                <path d="M15.997038,29.994044 C8.27859109,29.994044 2,23.7142378 2,15.9968142 C2,8.27983828 8.27859112,2 15.997038,2 C23.7141418,2 29.994044,8.27980628 29.994044,15.9968142 C29.994044,23.7142697 23.7141418,29.994044 15.997038,29.994044 Z M15.997038,2.53873872 C8.57554178,2.53873872 2.53873872,8.57534991 2.53873872,15.9968142 C2.53873872,23.4182784 8.57554178,29.4548896 15.997038,29.4548896 C23.4171911,29.4548896 29.4553053,23.4182784 29.4553053,15.9968142 C29.4553053,8.57534991 23.4171592,2.53873872 15.997038,2.53873872 Z M19.2008818,13.9385297 C19.4199333,13.9385297 19.637194,13.9552223 19.8500097,13.9794939 C19.2649983,11.2569238 16.3554191,9.23717316 13.0376365,9.23717316 C9.32533744,9.23717316 6.28400747,11.7678094 6.28400747,14.9819182 C6.28400747,16.8340705 7.29692072,18.3578373 8.98652716,19.5405874 L8.31156078,21.5714985 L10.6721683,20.3867338 C11.5158842,20.5536926 12.1926094,20.7257679 13.0376685,20.7257679 C13.2486934,20.7257679 13.4588549,20.7159505 13.6663302,20.699066 C13.535443,20.2471803 13.4588549,19.7749885 13.4588549,19.2847928 C13.4587909,16.3336098 15.9916657,13.9385297 19.2008818,13.9385297 Z M15.5709269,12.1082186 C16.0775914,12.1082186 16.4155382,12.4416885 16.4155382,12.9503677 C16.4155382,13.4568083 16.0776233,13.7958424 15.5709269,13.7958424 C15.0638147,13.7958424 14.5558072,13.4568083 14.5558072,12.9503677 C14.5558392,12.4416885 15.0638147,12.1082186 15.5709269,12.1082186 Z M10.8435401,13.7958424 C10.3368756,13.7958424 9.82483878,13.4568083 9.82483878,12.9503676 C9.82483878,12.4417205 10.3368437,12.1082186 10.8435401,12.1082186 C11.3493092,12.1082186 11.6845699,12.4416885 11.6845699,12.9503676 C11.6845699,13.4568083 11.3493092,13.7958424 10.8435401,13.7958424 Z M25.3641591,19.2033441 C25.3641591,16.5025833 22.6633982,14.3020592 19.6296471,14.3020592 C16.4155702,14.3020592 13.8835589,16.5025832 13.8835589,19.2033441 C13.8835589,21.9087738 16.4155382,24.103286 19.6296471,24.103286 C20.3019273,24.103286 20.9786844,23.9349841 21.6545462,23.7653711 L23.5080416,24.7804908 L22.9986909,23.0926432 C24.3557228,22.0757007 25.3641591,20.7257999 25.3641591,19.2033441 Z M17.7658867,18.3578374 C17.4293149,18.3578374 17.090057,18.0230244 17.090057,17.6826472 C17.090057,17.3453718 17.4293149,17.007361 17.7658867,17.007361 C18.2765805,17.007361 18.6109458,17.3454038 18.6109458,17.6826472 C18.6109458,18.0230563 18.2765805,18.3578374 17.7658867,18.3578374 Z M21.4804243,18.3578374 C21.1465067,18.3578374 20.8099029,18.0230244 20.8099029,17.6826472 C20.8099029,17.3453718 21.1464747,17.007361 21.4804243,17.007361 C21.9875365,17.007361 22.3267944,17.3454038 22.3267944,17.6826472 C22.3268264,18.0230563 21.9875365,18.3578374 21.4804243,18.3578374 Z" id="形状" opacity="0.65"></path>
            </g>
        </g>
    </g>
</svg>