<?xml version="1.0" encoding="UTF-8"?>
<svg width="16px" height="16px" viewBox="0 0 16 16" version="1.1" xmlns="http://www.w3.org/2000/svg" xmlns:xlink="http://www.w3.org/1999/xlink">
    <title>icon-begin-2-active</title>
    <g id="页面-1" stroke="none" stroke-width="1" fill="none" fill-rule="evenodd">
        <g id="画板" transform="translate(-69.000000, -236.000000)" fill-rule="nonzero">
            <g id="icon-begin-2备份" transform="translate(69.000000, 236.000000)">
                <rect id="矩形" fill="#000000" opacity="0" x="0" y="0" width="16" height="16"></rect>
                <path d="M10.6471249,2.47102063 L10.6471249,3.32473198 L7.9669989,3.32473198 C7.74659744,3.32473199 7.56792675,3.50340268 7.56792674,3.72380414 L7.56792674,8.09507566 L5.1908935,8.09507566 L5.1908935,7.24136431 C5.19089349,7.02096284 5.0122228,6.84229215 4.79182132,6.84229215 L2.39907216,6.84229215 C2.1786707,6.84229216 2,7.02096284 2,7.24136431 L2,9.6335522 C2.02815209,9.83179486 2.19885044,9.978485 2.39907216,9.97649607 L4.79182132,9.97649607 C5.0122228,9.97649607 5.1908935,9.79782537 5.1908935,9.5774239 L5.1908935,8.72483512 L7.56848802,8.72483512 L7.56848802,13.1135064 C7.56848802,13.3339079 7.74715872,13.5125786 7.96756019,13.5125786 L10.6476862,13.5125786 L10.6476862,14.3662899 C10.6476862,14.5866914 10.8263569,14.7653621 11.0467584,14.7653621 L13.4400688,14.7653621 C13.6604703,14.7653621 13.839141,14.5866914 13.839141,14.3662899 L13.839141,11.9718569 C13.839141,11.7514554 13.6604703,11.5727847 13.4400688,11.5727847 L11.0461971,11.5727847 C10.8257956,11.5727847 10.6471249,11.7514554 10.6471249,11.9718569 L10.6471249,12.8255683 L8.25381449,12.8255683 L8.25381449,8.72483512 L10.6471249,8.72483512 L10.6471249,9.5774239 C10.6471249,9.79782537 10.8257956,9.97649607 11.0461971,9.97649607 L13.4395076,9.97649607 C13.659909,9.97649607 13.8385797,9.79782537 13.8385797,9.5774239 L13.8385797,7.18523602 C13.8385797,6.96483455 13.659909,6.78616386 13.4395076,6.78616385 L11.0461971,6.78616385 C10.8257956,6.78616385 10.6471249,6.96483455 10.6471249,7.18523602 L10.6471249,8.09507566 L8.25381449,8.09507566 L8.25381449,3.93821422 L10.6471249,3.93821422 L10.6471249,4.79192557 C10.6471249,5.01232705 10.8257956,5.19099775 11.0461971,5.19099775 L13.4395076,5.19099775 C13.659909,5.19099774 13.8385797,5.01232705 13.8385797,4.79192557 L13.8385797,2.39917641 C13.8385797,2.17877494 13.659909,2.0000507 13.4395076,2.0000507 L11.0461971,2.0000507 C10.9266455,1.99814775 10.8125156,2.04989922 10.7352136,2.14111774 C10.6579116,2.23233627 10.6255834,2.35340949 10.6471249,2.47102063 Z M2.68532646,9.29173089 L2.68532646,7.4720516 L4.50556702,7.4720516 L4.50556702,9.29173089 L2.68532646,9.29173089 Z M13.152692,12.2581112 L13.152692,14.0777905 L11.3324514,14.0777905 L11.3324514,12.2581112 L13.152692,12.2581112 Z M13.152692,7.4720516 L13.152692,9.29173089 L11.3324514,9.29173089 L11.3324514,7.4720516 L13.152692,7.4720516 Z M13.152692,2.68599199 L13.152692,4.50567128 L11.3324514,4.50567128 L11.3324514,2.68543071 L13.152692,2.68599199 Z" id="形状" fill="#1890FF" opacity="0.85"></path>
            </g>
        </g>
    </g>
</svg>