<?xml version="1.0" encoding="UTF-8"?>
<svg width="16px" height="16px" viewBox="0 0 16 16" version="1.1" xmlns="http://www.w3.org/2000/svg" xmlns:xlink="http://www.w3.org/1999/xlink">
    <title>icon-begin-6-active</title>
    <g id="页面-1" stroke="none" stroke-width="1" fill="none" fill-rule="evenodd" opacity="0.86">
        <g id="画板" transform="translate(-61.000000, -648.000000)" fill-rule="nonzero">
            <g id="icon-begin-6备份" transform="translate(61.000000, 648.000000)">
                <rect id="矩形" fill="#000000" opacity="0" x="0" y="0" width="16" height="16"></rect>
                <path d="M12.0321875,14.4271875 L3.9678125,14.4271875 C2.65046875,14.4271875 1.57859375,13.3554688 1.57859375,12.0379688 L1.57859375,3.97359375 C1.57859375,2.65625 2.6503125,1.584375 3.9678125,1.584375 L12.0321875,1.584375 C13.3495313,1.584375 14.4214063,2.65609375 14.4214063,3.97359375 L14.4214063,12.0379688 C14.4214063,13.3554688 13.3495313,14.4271875 12.0321875,14.4271875 Z M3.9678125,2.49078125 C3.15015625,2.49078125 2.48484375,3.15609375 2.48484375,3.97375 L2.48484375,12.038125 C2.48484375,12.8557813 3.15015625,13.5210938 3.9678125,13.5210938 L12.0321875,13.5210938 C12.8498438,13.5210938 13.5151563,12.8557812 13.5151563,12.038125 L13.5151563,3.97359375 C13.5151563,3.1559375 12.8498437,2.490625 12.0321875,2.490625 L3.9678125,2.490625 L3.9678125,2.49078125 Z" id="形状" fill="#1890FF"></path>
                <path d="M9.145,12.1945313 C8.8946875,12.1945313 8.691875,11.9917188 8.691875,11.7414063 L8.691875,4.87140625 C8.691875,4.62109375 8.8946875,4.41828125 9.145,4.41828125 C9.3953125,4.41828125 9.598125,4.62109375 9.598125,4.87140625 L9.598125,11.74125 C9.598125,11.9915625 9.3953125,12.1945313 9.145,12.1945313 Z M6.855,12.1945313 C6.6046875,12.1945313 6.401875,11.9917188 6.401875,11.7414063 L6.401875,7.11171875 C6.401875,6.86140625 6.6046875,6.65859375 6.855,6.65859375 C7.1053125,6.65859375 7.308125,6.86140625 7.308125,7.11171875 L7.308125,11.7414063 C7.308125,11.9915625 7.1053125,12.1945313 6.855,12.1945313 Z M4.565,12.1945313 C4.3146875,12.1945313 4.111875,11.9917188 4.111875,11.7414063 L4.111875,9.351875 C4.111875,9.1015625 4.3146875,8.89875 4.565,8.89875 C4.8153125,8.89875 5.018125,9.1015625 5.018125,9.351875 L5.018125,11.7414063 C5.018125,11.9915625 4.8153125,12.1945313 4.565,12.1945313 Z M11.435,12.1945313 C11.1846875,12.1945313 10.981875,11.9917188 10.981875,11.7414063 L10.981875,9.351875 C10.981875,9.1015625 11.1846875,8.89875 11.435,8.89875 C11.6853125,8.89875 11.888125,9.1015625 11.888125,9.351875 L11.888125,11.7414063 C11.888125,11.9915625 11.6851562,12.1945313 11.435,12.1945313 Z" id="形状" fill="#1890FF"></path>
            </g>
        </g>
    </g>
</svg>