<?xml version="1.0" encoding="UTF-8"?>
<svg width="16px" height="16px" viewBox="0 0 16 16" version="1.1" xmlns="http://www.w3.org/2000/svg" xmlns:xlink="http://www.w3.org/1999/xlink">
    <title>icon-login</title>
    <g id="页面-1" stroke="none" stroke-width="1" fill="none" fill-rule="evenodd" opacity="0.65">
        <g id="--工作流节点设置/模型选择" transform="translate(-1326.000000, -25.000000)">
            <g id="icon-login" transform="translate(1326.000000, 25.000000)">
                <rect id="Rectangle-7" x="0" y="0" width="16" height="16"></rect>
                <path d="M12.8828125,7.140625 C12.6107422,7.140625 12.390625,7.36074219 12.390625,7.6328125 C12.390625,7.65195312 12.3919922,7.66972656 12.3933594,7.6875 L12.390625,7.6875 L12.390625,12.390625 L2.984375,12.390625 L2.984375,2.984375 L8.125,2.984375 C8.39707031,2.984375 8.6171875,2.76425781 8.6171875,2.4921875 C8.6171875,2.22011719 8.39707031,2 8.125,2 L2.984375,2 C2.44023438,2 2,2.44023437 2,2.984375 L2,12.390625 C2,12.9347656 2.44023438,13.375 2.984375,13.375 L12.390625,13.375 C12.9347656,13.375 13.375,12.9347656 13.375,12.390625 L13.375,7.6875 L13.3722656,7.6875 C13.3736328,7.66972656 13.375,7.65195312 13.375,7.6328125 C13.375,7.36074219 13.1548828,7.140625 12.8828125,7.140625 Z" id="Shape" fill="#1890FF" fill-rule="nonzero"></path>
                <path d="M12.4023974,4.37095091 L11.3182177,3.28677123 C10.934038,2.90259154 10.3078661,2.90532591 9.92368644,3.2895056 L4.49321769,8.71997435 C4.45356925,8.75962279 4.42212394,8.80747435 4.40024894,8.85942748 L3.03579581,12.0777869 C2.95923331,12.2582556 3.01255362,12.4400915 3.12876456,12.5576697 C3.2449755,12.6752478 3.42817862,12.7285681 3.61001456,12.6520056 L6.82974112,11.2889197 C6.88169425,11.2670447 6.92817862,11.2355994 6.96919425,11.1959509 L12.399663,5.76548216 C12.7838427,5.38130248 12.7865771,4.7551306 12.4023974,4.37095091 Z M6.34712394,10.42349 L4.46860831,11.2191931 L5.26431144,9.34067748 L9.07603019,5.52895873 L10.1588427,6.61177123 L6.34712394,10.42349 Z M11.7023974,5.06821654 L10.8547411,5.91587279 L9.77192862,4.83306029 L10.6195849,3.98540404 L10.6223192,3.98266966 L11.7051317,5.06548216 L11.7023974,5.06821654 Z" id="Shape" fill="#1890FF" fill-rule="nonzero"></path>
            </g>
        </g>
    </g>
</svg>