<?xml version="1.0" encoding="UTF-8"?>
<svg width="16px" height="16px" viewBox="0 0 16 16" version="1.1" xmlns="http://www.w3.org/2000/svg" xmlns:xlink="http://www.w3.org/1999/xlink">
    <title>pack up </title>
    <g id="页面-1" stroke="none" stroke-width="1" fill="none" fill-rule="evenodd" fill-opacity="0.449999988">
        <g id="计算任务详情-/工作流详情-空白" transform="translate(-79.000000, -882.000000)" fill="#000000" fill-rule="nonzero">
            <g id="收起" transform="translate(64.000000, 870.000000)">
                <g id="outdent" transform="translate(15.000000, 12.000000)">
                    <rect id="矩形" opacity="0" x="0" y="0" width="16" height="16"></rect>
                    <path d="M6.3359375,7.40625 L13.3671875,7.40625 C13.4316406,7.40625 13.484375,7.35 13.484375,7.28125 L13.484375,6.40625 C13.484375,6.3375 13.4316406,6.28125 13.3671875,6.28125 L6.3359375,6.28125 C6.27148438,6.28125 6.21875,6.3375 6.21875,6.40625 L6.21875,7.28125 C6.21875,7.35 6.27148438,7.40625 6.3359375,7.40625 Z M6.21875,10.59375 C6.21875,10.6625 6.27148438,10.71875 6.3359375,10.71875 L13.3671875,10.71875 C13.4316406,10.71875 13.484375,10.6625 13.484375,10.59375 L13.484375,9.71875 C13.484375,9.65 13.4316406,9.59375 13.3671875,9.59375 L6.3359375,9.59375 C6.27148438,9.59375 6.21875,9.65 6.21875,9.71875 L6.21875,10.59375 Z M13.6015625,3 L2.1171875,3 C2.05273438,3 2,3.05625 2,3.125 L2,4 C2,4.06875 2.05273438,4.125 2.1171875,4.125 L13.6015625,4.125 C13.6660156,4.125 13.71875,4.06875 13.71875,4 L13.71875,3.125 C13.71875,3.05625 13.6660156,3 13.6015625,3 Z M13.6015625,12.875 L2.1171875,12.875 C2.05273438,12.875 2,12.93125 2,13 L2,13.875 C2,13.94375 2.05273438,14 2.1171875,14 L13.6015625,14 C13.6660156,14 13.71875,13.94375 13.71875,13.875 L13.71875,13 C13.71875,12.93125 13.6660156,12.875 13.6015625,12.875 Z M2.04980469,8.6078125 L4.33935547,10.53125 C4.42431641,10.603125 4.55029297,10.5390625 4.55029297,10.4234375 L4.55029297,6.5765625 C4.55029297,6.4609375 4.42578125,6.396875 4.33935547,6.46875 L2.04980469,8.3921875 C1.98388672,8.446875 1.98388672,8.553125 2.04980469,8.6078125 Z" id="形状"></path>
                </g>
            </g>
        </g>
    </g>
</svg>